<svg xmlns="http://www.w3.org/2000/svg" width="100%" viewBox="0 0 96 22" fill="none" class="svg light"><g clip-path="url(#clip0_147_12977)" class="g light"><path d="M55.6562 14.8936C55.7023 15.0318 55.7486 15.0781 55.8867 15.0781C56.0247 15.078 56.0711 15.0317 56.1172 14.8936L59.5527 4.81934H61.6504V5.28027L57.1553 18.1904C56.3715 20.4494 55.2181 21.1874 52.6826 21.1875H50.7461V19.3428H54.1807C54.4455 19.3427 54.5959 19.2505 54.665 19.0547L55.3105 17.3145C55.3796 17.1303 55.4031 17.014 55.334 16.9219C55.2649 16.8298 55.218 16.8067 55.0342 16.8066H54.1348L50.124 5.28027V4.81934H52.2217L55.6562 14.8936ZM44.3936 4.47363C47.851 4.47376 49.3963 6.2259 49.3965 9.08398V16.8066H47.4141V15.5391C47.414 15.4472 47.3672 15.4005 47.2754 15.4004C47.1834 15.4004 47.1369 15.4242 47.0449 15.5391C46.192 16.6801 44.9238 17.1523 43.3564 17.1523C40.3598 17.1523 38.631 15.5853 38.6309 13.2803C38.631 11.2057 40.014 9.92562 43.0107 9.79883L47.3906 9.61426V8.96875C47.3904 7.2633 46.5139 6.27161 44.3936 6.27148C42.2732 6.27161 41.4203 7.26326 41.374 8.50781H39.2305C39.3229 6.22591 40.9361 4.47376 44.3936 4.47363ZM28.4893 0.208984C31.601 0.209129 33.6765 1.93815 33.6768 4.93457C33.6768 7.93131 31.6012 9.66001 28.4893 9.66016H24.2246V16.8066H22.0117V0.208984H28.4893ZM36.9141 16.8066H34.8389V0.208984H36.9141V16.8066ZM64.9219 16.8066H62.8477V0.208984H64.9219V16.8066ZM69.3135 16.8066H67.2383V4.81934H69.3135V16.8066ZM77.8535 4.47363C80.8499 4.4738 82.6941 6.20289 82.6943 9.31445V16.8066H80.6201V9.66016C80.6199 7.47082 79.4668 6.31856 77.3926 6.31836C75.0874 6.31836 73.7042 7.7016 73.7041 10.583V16.8066H71.6289V4.81934H73.6807V6.15625C73.6807 6.27151 73.7275 6.31836 73.8428 6.31836C73.9573 6.31801 74.0038 6.24862 74.0957 6.13379C74.8795 5.09663 76.1017 4.47363 77.8535 4.47363ZM87.0098 10.3984L93.3379 4.81934H96V5.28027L90.79 9.74121L96 16.3457V16.8066H93.7295L89.2578 11.0557L87.0098 12.9805V16.8066H84.9346V0.208984H87.0098V10.3984ZM43.0107 11.5508C41.3972 11.6199 40.7052 12.2431 40.7051 13.2803C40.7053 14.5479 41.743 15.3544 43.5869 15.3545C45.892 15.3543 47.3906 14.0405 47.3906 11.5049V11.3662L43.0107 11.5508ZM13.4062 7.91211H10.4395L8.90137 10.5488H5.93359L7.47266 7.91211H4.50586L2.9668 10.5488H0L1.53809 7.91211H4.50586L6.04395 5.27441H9.01074L10.5488 2.6377H7.58301L9.12109 0H18.0215L13.4062 7.91211ZM7.47266 7.91211H10.4395L11.9775 5.27441H9.01074L7.47266 7.91211ZM24.2246 7.67773H28.2588C30.2757 7.67763 31.4629 6.84783 31.4629 4.93457C31.4627 3.02168 30.2755 2.19151 28.2588 2.19141H24.2246V7.67773ZM6.04395 5.27441H3.07715L4.61523 2.6377H7.58203L6.04395 5.27441ZM69.3135 2.97559H67.2383V0.208984H69.3135V2.97559Z" fill="currentColor"></path></g></svg>